<svg width="200" height="200" viewBox="0 0 200 200" fill="none" xmlns="http://www.w3.org/2000/svg">
<g transform="translate(58 6)">
<mask id="mask0_19_5" style="mask-type:alpha" maskUnits="userSpaceOnUse" x="0" y="0" width="84" height="188">
<path fill-rule="evenodd" clip-rule="evenodd" d="M64.5 0.970881C52.5573 -1.78501 47.8772 2.04117 45.9531 3.61426C34.514 13.6521 27.5065 24.6231 27 29.4709C25.9882 39.155 25.4316 64.8674 25.4316 64.8674C11.2017 74.2489 0 80.9709 0 80.9709V108.971C0 108.971 10.5733 101.786 24.2295 91.9914L20 187.471C20 187.471 35.5 183.971 45.5 180.971C46.4551 163.301 45.815 123.849 45.2111 86.634L45.2108 86.6171C45.1568 83.2872 45.1031 79.9752 45.0508 76.6984C59.9017 65.4873 78.7788 51.2366 81 45.9709C81.8636 43.9235 84.0039 21.0789 83.999 14.4816C83.9941 7.88432 77.6178 3.99809 64.5 0.970881ZM75.6211 26.6125C68.1039 34.2795 56.5343 43.269 44.6875 51.7053C44.609 45.2762 44.636 31.8042 44.654 22.8595C44.6592 20.252 44.6636 18.0287 44.6645 16.4773C48.3915 16.1481 55.5709 15.5271 61.5 17.4709C67.4198 19.4118 75.5242 26.5273 75.6211 26.6125Z" fill="#D9D9D9"/>
</mask>
<g mask="url(#mask0_19_5)">
<rect width="282.002" height="328.404" transform="translate(56.4053 -109.843) rotate(45)" fill="#C4286F"/>
<path d="M-174.398 123.788L-175.812 122.374L56.4051 -109.843L57.8193 -108.429L-174.398 123.788Z" fill="#EC5892"/>
<path d="M-171.569 126.617L-172.983 125.203L59.2337 -107.014L60.6479 -105.6L-171.569 126.617Z" fill="#EC5892"/>
<path d="M-168.74 129.445L-170.155 128.031L62.0623 -104.186L63.4766 -102.771L-168.74 129.445Z" fill="#EC5892"/>
<path d="M-165.912 132.274L-167.326 130.859L64.8905 -101.358L66.3047 -99.9434L-165.912 132.274Z" fill="#EC5892"/>
<path d="M-163.084 135.102L-164.498 133.688L67.7191 -98.529L69.1333 -97.1147L-163.084 135.102Z" fill="#EC5892"/>
<path d="M-160.255 137.93L-161.669 136.516L70.5477 -95.7008L71.9619 -94.2866L-160.255 137.93Z" fill="#EC5892"/>
<path d="M-157.427 140.759L-158.841 139.345L73.3758 -92.8722L74.79 -91.458L-157.427 140.759Z" fill="#EC5892"/>
<path d="M-154.598 143.587L-156.012 142.173L76.2044 -90.0436L77.6187 -88.6294L-154.598 143.587Z" fill="#EC5892"/>
<path d="M-151.77 146.416L-153.184 145.001L79.0331 -87.2155L80.4473 -85.8013L-151.77 146.416Z" fill="#EC5892"/>
<path d="M-148.942 149.244L-150.356 147.83L81.8612 -84.3869L83.2754 -82.9727L-148.942 149.244Z" fill="#EC5892"/>
<path d="M-146.113 152.073L-147.527 150.659L84.6898 -81.5583L86.104 -80.144L-146.113 152.073Z" fill="#EC5892"/>
<path d="M-143.285 154.901L-144.699 153.487L87.5179 -78.7301L88.9321 -77.3159L-143.285 154.901Z" fill="#EC5892"/>
<path d="M-140.456 157.73L-141.87 156.315L90.3465 -75.9015L91.7607 -74.4873L-140.456 157.73Z" fill="#EC5892"/>
<path d="M-137.628 160.558L-139.042 159.144L93.1751 -73.0729L94.5894 -71.6587L-137.628 160.558Z" fill="#EC5892"/>
<path d="M-134.799 163.386L-136.214 161.972L96.0033 -70.2448L97.4175 -68.8306L-134.799 163.386Z" fill="#EC5892"/>
<path d="M-131.971 166.215L-133.385 164.801L98.8319 -67.4162L100.246 -66.002L-131.971 166.215Z" fill="#EC5892"/>
<path d="M-129.142 169.043L-130.556 167.629L101.66 -64.588L103.075 -63.1738L-129.142 169.043Z" fill="#EC5892"/>
<path d="M-126.314 171.872L-127.728 170.457L104.489 -61.7594L105.903 -60.3452L-126.314 171.872Z" fill="#EC5892"/>
<path d="M-123.485 174.7L-124.9 173.286L107.317 -58.9308L108.731 -57.5166L-123.485 174.7Z" fill="#EC5892"/>
<path d="M-120.657 177.528L-122.071 176.114L110.146 -56.1027L111.56 -54.6885L-120.657 177.528Z" fill="#EC5892"/>
<path d="M-117.829 180.357L-119.243 178.943L112.974 -53.2741L114.388 -51.8599L-117.829 180.357Z" fill="#EC5892"/>
<path d="M-115 183.186L-116.414 181.771L115.803 -50.4455L117.217 -49.0312L-115 183.186Z" fill="#EC5892"/>
<path d="M-112.172 186.014L-113.586 184.6L118.631 -47.6173L120.045 -46.2031L-112.172 186.014Z" fill="#EC5892"/>
<path d="M-109.343 188.842L-110.758 187.428L121.459 -44.7887L122.874 -43.3745L-109.343 188.842Z" fill="#EC5892"/>
<path d="M-106.515 191.671L-107.929 190.257L124.288 -41.9601L125.702 -40.5459L-106.515 191.671Z" fill="#EC5892"/>
<path d="M-103.687 194.499L-105.101 193.085L127.116 -39.132L128.53 -37.7178L-103.687 194.499Z" fill="#EC5892"/>
<path d="M-100.858 197.328L-102.272 195.914L129.945 -36.3034L131.359 -34.8892L-100.858 197.328Z" fill="#EC5892"/>
<path d="M-98.0294 200.156L-99.4436 198.742L132.773 -33.4748L134.188 -32.0605L-98.0294 200.156Z" fill="#EC5892"/>
<path d="M-95.2013 202.984L-96.6155 201.57L135.601 -30.6466L137.016 -29.2324L-95.2013 202.984Z" fill="#EC5892"/>
<path d="M-92.3727 205.813L-93.7869 204.399L138.43 -27.818L139.844 -26.4038L-92.3727 205.813Z" fill="#EC5892"/>
<path d="M-89.5441 208.641L-90.9583 207.227L141.259 -24.9899L142.673 -23.5757L-89.5441 208.641Z" fill="#EC5892"/>
<path d="M-86.7159 211.47L-88.1302 210.056L144.087 -22.1613L145.501 -20.7471L-86.7159 211.47Z" fill="#EC5892"/>
<path d="M-83.8873 214.298L-85.3015 212.884L146.915 -19.3327L148.33 -17.9185L-83.8873 214.298Z" fill="#EC5892"/>
<path d="M-81.0587 217.127L-82.4729 215.712L149.744 -16.5045L151.158 -15.0903L-81.0587 217.127Z" fill="#EC5892"/>
<path d="M-78.2306 219.955L-79.6448 218.541L152.572 -13.6759L153.986 -12.2617L-78.2306 219.955Z" fill="#EC5892"/>
<path d="M-75.402 222.784L-76.8162 221.37L155.401 -10.8473L156.815 -9.43311L-75.402 222.784Z" fill="#EC5892"/>
<path d="M-72.5734 225.612L-73.9876 224.198L158.229 -8.01919L159.644 -6.60498L-72.5734 225.612Z" fill="#EC5892"/>
<path d="M-69.7452 228.441L-71.1595 227.026L161.057 -5.19058L162.472 -3.77637L-69.7452 228.441Z" fill="#EC5892"/>
<path d="M-66.9166 231.269L-68.3308 229.855L163.886 -2.36197L165.3 -0.947754L-66.9166 231.269Z" fill="#EC5892"/>
<path d="M-64.088 234.097L-65.5022 232.683L166.715 0.466157L168.129 1.88037L-64.088 234.097Z" fill="#EC5892"/>
<path d="M-61.2599 236.926L-62.6741 235.512L169.543 3.29477L170.957 4.70898L-61.2599 236.926Z" fill="#EC5892"/>
<path d="M-58.4313 239.754L-59.8455 238.34L172.371 6.12338L173.786 7.5376L-58.4313 239.754Z" fill="#EC5892"/>
<path d="M-55.6027 242.583L-57.0169 241.168L175.2 8.95151L176.614 10.3657L-55.6027 242.583Z" fill="#EC5892"/>
<path d="M-52.7745 245.411L-54.1888 243.997L178.028 11.7801L179.442 13.1943L-52.7745 245.411Z" fill="#EC5892"/>
<path d="M-49.9459 248.24L-51.3601 246.826L180.857 14.6087L182.271 16.0229L-49.9459 248.24Z" fill="#EC5892"/>
<path d="M-47.1173 251.068L-48.5315 249.654L183.685 17.4369L185.1 18.8511L-47.1173 251.068Z" fill="#EC5892"/>
<path d="M-44.2892 253.897L-45.7034 252.482L186.514 20.2655L187.928 21.6797L-44.2892 253.897Z" fill="#EC5892"/>
<path d="M-41.4606 256.725L-42.8748 255.311L189.342 23.0941L190.756 24.5083L-41.4606 256.725Z" fill="#EC5892"/>
<path d="M-38.632 259.553L-40.0462 258.139L192.171 25.9222L193.585 27.3364L-38.632 259.553Z" fill="#EC5892"/>
<path d="M-35.8038 262.382L-37.218 260.968L194.999 28.7508L196.413 30.165L-35.8038 262.382Z" fill="#EC5892"/>
<path d="M-32.9752 265.211L-34.3894 263.796L197.827 31.5794L199.242 32.9937L-32.9752 265.211Z" fill="#EC5892"/>
<path d="M-30.1466 268.039L-31.5608 266.624L200.656 34.4076L202.07 35.8218L-30.1466 268.039Z" fill="#EC5892"/>
<path d="M-27.3185 270.867L-28.7327 269.453L203.484 37.2362L204.898 38.6504L-27.3185 270.867Z" fill="#EC5892"/>
<path d="M-24.4899 273.696L-25.9041 272.282L206.313 40.0648L207.727 41.479L-24.4899 273.696Z" fill="#EC5892"/>
<path d="M-21.6613 276.524L-23.0755 275.11L209.141 42.8929L210.556 44.3071L-21.6613 276.524Z" fill="#EC5892"/>
<path d="M-18.8331 279.353L-20.2473 277.938L211.97 45.7215L213.384 47.1357L-18.8331 279.353Z" fill="#EC5892"/>
<path d="M-16.0045 282.181L-17.4187 280.767L214.798 48.5501L216.212 49.9644L-16.0045 282.181Z" fill="#EC5892"/>
<path d="M-13.1759 285.009L-14.5901 283.595L217.627 51.3783L219.041 52.7925L-13.1759 285.009Z" fill="#EC5892"/>
<path d="M-10.3478 287.838L-11.762 286.424L220.455 54.2069L221.869 55.6211L-10.3478 287.838Z" fill="#EC5892"/>
<path d="M-7.51917 290.667L-8.93338 289.252L223.284 57.0355L224.698 58.4497L-7.51917 290.667Z" fill="#EC5892"/>
<path d="M-4.69055 293.495L-6.10477 292.081L226.112 59.8636L227.526 61.2778L-4.69055 293.495Z" fill="#EC5892"/>
<path d="M-1.86243 296.323L-3.27664 294.909L228.94 62.6922L230.354 64.1064L-1.86243 296.323Z" fill="#EC5892"/>
<path d="M0.966185 299.152L-0.448029 297.738L231.769 65.5208L233.183 66.9351L0.966185 299.152Z" fill="#EC5892"/>
<path d="M3.7948 301.98L2.38058 300.566L234.598 68.349L236.012 69.7632L3.7948 301.98Z" fill="#EC5892"/>
<path d="M6.62292 304.809L5.20871 303.394L237.426 71.1776L238.84 72.5918L6.62292 304.809Z" fill="#EC5892"/>
<path d="M9.45154 307.637L8.03732 306.223L240.254 74.0062L241.668 75.4204L9.45154 307.637Z" fill="#EC5892"/>
<path d="M12.2797 310.465L10.8654 309.051L243.082 76.8343L244.497 78.2485L12.2797 310.465Z" fill="#EC5892"/>
<path d="M15.1083 313.294L13.6941 311.88L245.911 79.6629L247.325 81.0771L15.1083 313.294Z" fill="#EC5892"/>
<path d="M17.9369 316.123L16.5227 314.708L248.74 82.4915L250.154 83.9058L17.9369 316.123Z" fill="#EC5892"/>
<path d="M20.765 318.951L19.3508 317.537L251.568 85.3197L252.982 86.7339L20.765 318.951Z" fill="#EC5892"/>
<path d="M23.5936 321.779L22.1794 320.365L254.396 88.1483L255.811 89.5625L23.5936 321.779Z" fill="#EC5892"/>
</g>
<path fill-rule="evenodd" clip-rule="evenodd" d="M75.6211 26.6125C75.5226 26.5185 67.4198 19.4118 61.5 17.4709C55.571 15.5271 48.3915 16.1481 44.6645 16.4773C44.6645 16.4773 44.0291 5.18736 45.9531 3.61426C47.8772 2.04116 52.5573 -1.78501 64.5 0.970884C77.6179 3.99809 83.9942 7.88432 83.999 14.4816C84.2414 18.8423 77.3683 24.6353 75.6211 26.6125Z" fill="url(#paint0_radial_19_5)" fill-opacity="0.32"/>
<path fill-rule="evenodd" clip-rule="evenodd" d="M45.0508 76.6982C45.1031 79.9751 45.1568 83.287 45.2108 86.6169L45.2111 86.6338C45.815 123.849 46.4551 163.3 45.5 180.971C35.5 183.971 20 187.471 20 187.471L24.2295 91.9912L45.0508 76.6982Z" fill="url(#paint1_linear_19_5)" fill-opacity="0.32"/>
<path d="M25.4316 64.8674C25.4316 64.8674 25.9882 39.155 27 29.4709C27.5065 24.6231 34.514 13.6521 45.9531 3.61426L44.6645 16.4773C44.6636 18.0287 44.6592 20.252 44.6539 22.8595V22.8597C44.636 31.8045 44.609 45.2763 44.6875 51.7053L25.4316 64.8674Z" fill="url(#paint2_linear_19_5)" fill-opacity="0.32"/>
</g>
<defs>
<radialGradient id="paint0_radial_19_5" cx="0" cy="0" r="1" gradientUnits="userSpaceOnUse" gradientTransform="translate(63.2535 11.336) rotate(-163.072) scale(17.7191 28.9344)">
<stop offset="0.416298" stop-opacity="0"/>
<stop offset="0.779677" stop-opacity="0.5"/>
<stop offset="1"/>
</radialGradient>
<linearGradient id="paint1_linear_19_5" x1="45.9877" y1="108.947" x2="28.7539" y2="86.1471" gradientUnits="userSpaceOnUse">
<stop offset="0.416298" stop-opacity="0"/>
<stop offset="0.779677" stop-opacity="0.5"/>
<stop offset="1"/>
</linearGradient>
<linearGradient id="paint2_linear_19_5" x1="22.6754" y1="30.0276" x2="35.6924" y2="61.7464" gradientUnits="userSpaceOnUse">
<stop offset="0.416298" stop-opacity="0"/>
<stop offset="0.779677" stop-opacity="0.5"/>
<stop offset="1"/>
</linearGradient>
</defs>
</svg>
